<?xml version="1.0" encoding="utf-8"?>
<!-- Generator: Adobe Illustrator 17.1.0, SVG Export Plug-In . SVG Version: 6.00 Build 0)  -->
<!DOCTYPE svg PUBLIC "-//W3C//DTD SVG 1.1//EN" "http://www.w3.org/Graphics/SVG/1.1/DTD/svg11.dtd">
<svg version="1.1" id="Layer_1" xmlns="http://www.w3.org/2000/svg" xmlns:xlink="http://www.w3.org/1999/xlink" x="0px" y="0px"
	 viewBox="0 0 633.6 72" enable-background="new 0 0 633.6 72" xml:space="preserve">
<g>
	<polygon fill="none" stroke="#F7941E" stroke-width="0.9092" stroke-miterlimit="10" points="389.5,10.3 389.6,10.4 389.5,10.3 	
		"/>
	<polyline fill="none" stroke="#F7941E" stroke-width="0.9092" stroke-miterlimit="10" points="306.2,18.3 316.4,8 326.7,18.3 	"/>
	<path fill="none" stroke="#F7941E" stroke-width="0.9092" stroke-miterlimit="10" d="M316.6,50.8c1.6-8.1,3.8-16,6.6-23.8
		c1-2.8,2.1-5.5,3.2-8.3l0.1-0.3l0-0.1l3-7.2l6.6,6.6"/>
	<path fill="none" stroke="#F7941E" stroke-width="0.9092" stroke-miterlimit="10" d="M347,17.8l-7.1-7.1l-2.1,3.8l-1.7,3.1
		l-0.2,0.3c-3.7,6.8-6.7,13.8-9.2,20.9c-1.4,3.9-2.6,7.9-3.6,11.9"/>
	<path fill="none" stroke="#F7941E" stroke-width="0.9092" stroke-miterlimit="10" d="M377.2,19.1l-9.1-9l-5.8,5.9
		c-0.3,0.3-0.6,0.6-0.9,0.9c-0.4,0.4-0.9,0.9-1.3,1.3c-6.1,6.5-11.4,13.2-15.7,20c-3,4.7-5.5,9.5-7.6,14.2"/>
	<path fill="none" stroke="#F7941E" stroke-width="0.9092" stroke-miterlimit="10" d="M360.2,18.2l-7.9-7.9l-3.7,5.1l-1.2,1.6
		c-0.2,0.3-0.4,0.5-0.6,0.8c-2.5,3.5-4.8,7.1-6.8,10.7c0,0,0,0,0,0c-4.3,7.5-7.8,15.2-10.3,23"/>
	<path fill="none" stroke="#F7941E" stroke-width="0.9092" stroke-miterlimit="10" d="M400,20.8l-10.4-10.4l-0.1-0.1l-6.7,4.7
		c-1.9,1.3-3.7,2.7-5.5,4.1c-11.9,9.1-21.6,19.1-28.7,29.3c-1.4,1.9-2.6,3.9-3.7,5.8"/>
	<path fill="none" stroke="#F7941E" stroke-width="0.9092" stroke-miterlimit="10" d="M372.9,65.7c11.7-6.7,23.9-12.5,36.4-17.5
		c17.9-7.1,36.4-12.4,55.4-15.4c20.5-3.2,41.3-3.6,61.9-1c18.7,2.4,37.1,7.1,54.8,13.6c13.8,5,27.1,11.1,40,18.2
		c1.9,1,3.8,2.1,5.6,3.2"/>
	<path fill="none" stroke="#F7941E" stroke-width="0.9092" stroke-miterlimit="10" d="M590.2,66.8c-23.9-10.4-55.9-20.3-90.9-20.3
		h-0.2c-35,0-67.2,10-91.1,20.3"/>
	<path fill="none" stroke="#F7941E" stroke-width="0.9092" stroke-miterlimit="10" d="M433.6,23.5l-12.2-12.2l-0.2-0.2l-7.4,3.2
		c-4.7,2-9.3,4.2-13.7,6.6c-0.8,0.4-1.5,0.8-2.3,1.2c-18.8,10.2-34.4,22.5-44.4,34.7"/>
	<path fill="none" stroke="#F7941E" stroke-width="0.9092" stroke-miterlimit="10" d="M522.4,31.3l-17.6-17.5v0h0l-8.2,0h-0.2
		c-23.6,0-45,4.3-62.8,9.8c-2.1,0.6-4.1,1.3-6.1,2c-14.7,5-26.6,10.7-34.7,15c-10.3,5.5-21.4,12.6-30.2,20"/>
	<path fill="none" stroke="#F7941E" stroke-width="0.9092" stroke-miterlimit="10" d="M407.9,66.8c24-10.4,56.1-20.3,91.1-20.3h0.2"
		/>
	<path fill="none" stroke="#F7941E" stroke-width="0.9092" stroke-miterlimit="10" d="M548.5,66.8c-20.8-10.4-44.3-16.2-69.2-16.2
		c-18.5,0-36.2,3.2-52.6,9.1c-6.4,1.9-12.5,4.3-18.5,7h-0.4"/>
	<path fill="none" stroke="#F7941E" stroke-width="0.9092" stroke-miterlimit="10" d="M408.3,66.8c5.9-2.8,12.1-5.1,18.5-7
		c12.3-3.7,25.4-5.7,38.9-5.7c20.5,0,39.9,4.6,57.3,12.7"/>
	<g>
		<path fill="none" stroke="#F7941E" stroke-width="0.9092" stroke-miterlimit="10" d="M316,50.8c-1.6-8.1-3.8-16.1-6.6-23.9
			c-1-2.8-2.1-5.5-3.2-8.3l-0.1-0.3l0-0.1l-3-7.2l-6.6,6.6"/>
		<path fill="none" stroke="#F7941E" stroke-width="0.9092" stroke-miterlimit="10" d="M285.6,17.7l7.1-7.1l2.1,3.8l1.7,3.1l0.2,0.3
			c3.7,6.8,6.7,13.8,9.2,20.9c1.4,3.9,2.6,7.9,3.6,11.9c0,0.1,0.1,0.2,0.1,0.4"/>
		<path fill="none" stroke="#F7941E" stroke-width="0.9092" stroke-miterlimit="10" d="M255.3,19.1l9.1-9l5.8,5.9
			c0.3,0.3,0.6,0.6,0.9,0.9c0.4,0.4,0.9,0.9,1.3,1.3c6.1,6.5,11.4,13.2,15.7,20c3,4.8,5.6,9.7,7.7,14.6"/>
		<path fill="none" stroke="#F7941E" stroke-width="0.9092" stroke-miterlimit="10" d="M272.3,18.2l7.9-7.9l3.7,5.1L285,17
			c0.2,0.3,0.4,0.5,0.6,0.8c2.5,3.5,4.8,7.1,6.8,10.6c0,0,0,0,0,0c4.4,7.6,7.9,15.4,10.4,23.3"/>
		<path fill="none" stroke="#F7941E" stroke-width="0.9092" stroke-miterlimit="10" d="M232.5,20.8l10.4-10.4l0.1-0.1l6.7,4.7
			c1.9,1.3,3.7,2.7,5.5,4.1c11.9,9.1,21.6,19.1,28.7,29.2c1.5,2.1,2.8,4.2,4,6.3"/>
		<line fill="none" stroke="#F7941E" stroke-width="0.9092" stroke-miterlimit="10" x1="374.9" y1="66.9" x2="628.7" y2="66.9"/>
		<path fill="none" stroke="#F7941E" stroke-width="0.9092" stroke-miterlimit="10" d="M260.4,66.1c-11.9-6.9-24.4-12.8-37.2-17.9
			c-17.9-7.1-36.5-12.4-55.4-15.4c-20.5-3.2-41.3-3.6-61.9-0.9C87.2,34.3,68.8,39,51.1,45.5c-13.8,5-27.1,11.2-40,18.2
			c-1.9,1-3.8,2.1-5.6,3.2h253.7"/>
		<path fill="none" stroke="#F7941E" stroke-width="0.9092" stroke-miterlimit="10" d="M42.4,66.9c23.9-10.4,55.9-20.3,90.9-20.4
			l0.2,0c35,0,67.2,9.9,91.1,20.3"/>
		<path fill="none" stroke="#F7941E" stroke-width="0.9092" stroke-miterlimit="10" d="M198.9,23.5l12.2-12.2l0.2-0.2l7.4,3.2
			c4.7,2,9.3,4.2,13.7,6.6c0.8,0.4,1.5,0.8,2.3,1.2c18.9,10.2,34.7,22.7,44.7,35c0,0,0,0,0,0"/>
		<path fill="none" stroke="#F7941E" stroke-width="0.9092" stroke-miterlimit="10" d="M110.1,31.3l17.6-17.5l0,0l0,0l8.2,0l0.2,0
			c23.6,0,45,4.3,62.8,9.8c2.1,0.6,4.1,1.3,6.1,2c14.7,5,26.6,10.6,34.7,15c10.6,5.6,22,12.9,30.8,20.5"/>
		<path fill="none" stroke="#F7941E" stroke-width="0.9092" stroke-miterlimit="10" d="M224.6,66.8c-24-10.3-56.1-20.3-91.1-20.3
			l-0.2,0"/>
		<path fill="none" stroke="#F7941E" stroke-width="0.9092" stroke-miterlimit="10" d="M84,66.9c20.8-10.4,44.3-16.2,69.1-16.2
			c18.5,0,36.2,3.2,52.6,9.1c6.4,1.9,12.5,4.3,18.5,7l0.4,0"/>
		<path fill="none" stroke="#F7941E" stroke-width="0.9092" stroke-miterlimit="10" d="M224.2,66.8c-5.9-2.8-12.1-5.1-18.5-7
			c-12.3-3.7-25.4-5.7-38.9-5.7c-20.5,0-39.9,4.6-57.3,12.7"/>
	</g>
	<path fill="none" stroke="#F7941E" stroke-width="0.9092" stroke-miterlimit="10" d="M259.3,66.9c16.9-10.2,36.7-16.1,57.8-16.1
		c21.2,0,41,5.9,57.8,16.1"/>
	<g>
		
			<path fill="none" stroke="#F7941E" stroke-width="1.8184" stroke-linecap="round" stroke-miterlimit="10" stroke-dasharray="0,4.5459" d="
			M421.4,65.2c1.6-0.5,3.2-1.1,4.8-1.5c12.3-3.7,25.4-5.7,38.9-5.7c15.3,0,30,2.5,43.7,7.2"/>
		
			<path fill="none" stroke="#F7941E" stroke-width="1.8184" stroke-linecap="round" stroke-miterlimit="10" stroke-dasharray="0,4.5459" d="
			M506,22.8c-14.8-1.1-63.5-6.3-134.5,37.6"/>
		
			<path fill="none" stroke="#F7941E" stroke-width="1.8184" stroke-linecap="round" stroke-miterlimit="10" stroke-dasharray="0,4.5459" d="
			M394.1,66c30.9-18,66.8-28.3,105.1-28.3c35.2,0,68.3,8.7,97.4,24"/>
		
			<path fill="none" stroke="#F7941E" stroke-width="1.8184" stroke-linecap="round" stroke-miterlimit="10" stroke-dasharray="0,4.5459" d="
			M421.7,18.3c-9.7,2.8-36.2,14.1-60.7,36.9"/>
		
			<path fill="none" stroke="#F7941E" stroke-width="1.8184" stroke-linecap="round" stroke-miterlimit="10" stroke-dasharray="0,4.5459" d="
			M390.2,18.3c-9.6,5.1-29.7,20.8-39.7,34.2"/>
		
			<path fill="none" stroke="#F7941E" stroke-width="1.8184" stroke-linecap="round" stroke-miterlimit="10" stroke-dasharray="0,4.5459" d="
			M368.8,18.3c-5.3,2.8-21.9,21.3-26.5,31.1"/>
		
			<path fill="none" stroke="#F7941E" stroke-width="1.8184" stroke-linecap="round" stroke-miterlimit="10" stroke-dasharray="0,4.5459" d="
			M353.3,17.7c-7.1,6.1-15.8,22.1-18.3,30.8"/>
		
			<path fill="none" stroke="#F7941E" stroke-width="1.8184" stroke-linecap="round" stroke-miterlimit="10" stroke-dasharray="0,4.5459" d="
			M341.6,17.7c-2.6,2.8-10.1,16.8-14.1,30.8"/>
		
			<path fill="none" stroke="#F7941E" stroke-width="1.8184" stroke-linecap="round" stroke-miterlimit="10" stroke-dasharray="0,4.5459" d="
			M330.9,18c-5.1,8.2-10.3,28.5-10.3,28.5"/>
		
			<line fill="none" stroke="#F7941E" stroke-width="1.8184" stroke-linecap="round" stroke-miterlimit="10" stroke-dasharray="0,4.5459" x1="316.3" y1="39.6" x2="316.4" y2="11.7"/>
		
			<path fill="none" stroke="#F7941E" stroke-width="1.8184" stroke-linecap="round" stroke-miterlimit="10" stroke-dasharray="0,4.5459" d="
			M477.1,52.6c12.4,0.7,38.9,3.7,58.8,14.3"/>
		
			<path fill="none" stroke="#F7941E" stroke-width="1.8184" stroke-linecap="round" stroke-miterlimit="10" stroke-dasharray="0,4.5459" d="
			M489,48.7c17.8,0,53,3.2,79.8,18.2"/>
		
			<path fill="none" stroke="#F7941E" stroke-width="1.8184" stroke-linecap="round" stroke-miterlimit="10" stroke-dasharray="0,4.5459" d="
			M210.9,65.2c-1.6-0.5-3.2-1.1-4.8-1.5C193.7,60,180.7,58,167.2,58c-15.3,0-30,2.5-43.7,7.2"/>
		
			<path fill="none" stroke="#F7941E" stroke-width="1.8184" stroke-linecap="round" stroke-miterlimit="10" stroke-dasharray="0,4.5459" d="
			M126.3,22.8c14.8-1.1,63.5-6.3,134.5,37.6"/>
		
			<path fill="none" stroke="#F7941E" stroke-width="1.8184" stroke-linecap="round" stroke-miterlimit="10" stroke-dasharray="0,4.5459" d="
			M238.2,66C207.3,48,171.4,37.7,133,37.7c-35.2,0-68.3,8.7-97.4,24"/>
		
			<path fill="none" stroke="#F7941E" stroke-width="1.8184" stroke-linecap="round" stroke-miterlimit="10" stroke-dasharray="0,4.5459" d="
			M210.6,18.3c9.7,2.8,36.2,14.1,60.7,36.9"/>
		
			<path fill="none" stroke="#F7941E" stroke-width="1.8184" stroke-linecap="round" stroke-miterlimit="10" stroke-dasharray="0,4.5459" d="
			M242.1,18.3c9.6,5.1,29.7,20.8,39.7,34.2"/>
		
			<path fill="none" stroke="#F7941E" stroke-width="1.8184" stroke-linecap="round" stroke-miterlimit="10" stroke-dasharray="0,4.5459" d="
			M263.5,18.3c5.3,2.8,21.9,21.3,26.5,31.1"/>
		
			<path fill="none" stroke="#F7941E" stroke-width="1.8184" stroke-linecap="round" stroke-miterlimit="10" stroke-dasharray="0,4.5459" d="
			M279,17.7c7.1,6.1,15.8,22.1,18.3,30.8"/>
		
			<path fill="none" stroke="#F7941E" stroke-width="1.8184" stroke-linecap="round" stroke-miterlimit="10" stroke-dasharray="0,4.5459" d="
			M290.7,17.7c2.6,2.8,10.1,16.8,14.1,30.8"/>
		
			<path fill="none" stroke="#F7941E" stroke-width="1.8184" stroke-linecap="round" stroke-miterlimit="10" stroke-dasharray="0,4.5459" d="
			M301.4,18c5.1,8.2,10.3,28.5,10.3,28.5"/>
		
			<path fill="none" stroke="#F7941E" stroke-width="1.8184" stroke-linecap="round" stroke-miterlimit="10" stroke-dasharray="0,4.5459" d="
			M155.2,52.6c-12.4,0.7-38.9,3.7-58.8,14.3"/>
		
			<path fill="none" stroke="#F7941E" stroke-width="1.8184" stroke-linecap="round" stroke-miterlimit="10" stroke-dasharray="0,4.5459" d="
			M143.3,48.7c-17.8,0-53,3.2-79.8,18.2"/>
	</g>
</g>
</svg>
