<?xml version="1.0" encoding="utf-8"?>
<!-- Generator: Adobe Illustrator 17.1.0, SVG Export Plug-In . SVG Version: 6.00 Build 0)  -->
<!DOCTYPE svg PUBLIC "-//W3C//DTD SVG 1.1//EN" "http://www.w3.org/Graphics/SVG/1.1/DTD/svg11.dtd">
<svg version="1.1" id="Layer_1" xmlns="http://www.w3.org/2000/svg" xmlns:xlink="http://www.w3.org/1999/xlink" x="0px" y="0px"
	 viewBox="795.5 733.6 609 505.4" enable-background="new 795.5 733.6 609 505.4" xml:space="preserve">
<g>
	<path fill="#F6921E" d="M813.4,915c11.9,3,26.7,5.9,38.6,8.9v-3c-5.9-8.9-14.9-17.8-20.8-29.7c-23.8-38.6-26.7-80.2-8.9-121.8
		c3-8.9,8.9-8.9,17.8-3c23.8,23.8,50.5,47.5,77.2,65.4c47.5,32.7,104,50.5,160.4,56.4c8.9,0,8.9-3,8.9-11.9
		c-3-41.6,8.9-77.2,38.6-107c44.6-44.6,118.8-47.5,169.3-8.9c11.9,8.9,20.8,11.9,32.7,5.9c20.8-8.9,38.6-14.9,59.4-23.8
		c-5.9,26.7-23.8,44.6-41.6,62.4v3c17.8-5.9,38.6-11.9,56.4-14.9c0,0,0,0,3,3c-5.9,8.9-14.9,20.8-20.8,26.7
		c-8.9,8.9-20.8,17.8-29.7,29.7c-5.9,5.9-8.9,11.9-8.9,20.8c0,77.2-20.8,145.6-65.4,208c-47.5,71.3-112.9,118.8-193.1,139.6
		c-80.2,20.8-157.5,17.8-234.7-11.9c-20.8-8.9-38.6-17.8-56.4-29.7c62.4,0,121.8-11.9,175.3-50.5c-53.5-8.9-92.1-35.7-112.9-89.1
		c17.8,0,29.7,0,44.6,0C837.1,1007.1,804.5,959.6,813.4,915z"/>
</g>
<g id="Drtowv_1_" display="none">
	<g display="inline">
		<path fill="#F6921E" d="M1141.1,896.5c27.1,0,51.8,0,79,0c-2.5,27.1-4.9,56.8-7.4,83.9c-22.2,0-46.9,0-71.6,0
			c0,83.9,0,167.8,0,254.1c-2.5,0-4.9,0-7.4,0c-29.6,0-59.2,0-86.4,0c-4.9,0-7.4-2.5-7.4-7.4c0-79,0-157.9,0-236.9
			c0-2.5,0-4.9,0-7.4c-17.3,0-34.5,0-51.8,0c0-29.6,0-56.8,0-86.4c17.3,0,34.5,0,51.8,0c0-2.5,0-4.9,0-7.4c0-24.7,0-49.3,0-74
			c2.5-44.4,27.1-71.6,71.6-79c12.3-2.5,24.7-2.5,37-2.5c22.2,0,41.9,0,64.2,0c2.5,0,4.9,0,7.4,0c0,29.6,0,59.2,0,88.8
			c-2.5,0-4.9,0-7.4,0c-17.3,0-32.1,0-49.3,0c-14.8,0-22.2,7.4-22.2,22.2C1141.1,861.9,1141.1,879.2,1141.1,896.5z"/>
	</g>
</g>
</svg>
