<?xml version="1.0" encoding="utf-8"?>
<!-- Generator: Adobe Illustrator 15.1.0, SVG Export Plug-In  -->
<!DOCTYPE svg PUBLIC "-//W3C//DTD SVG 1.1//EN" "http://www.w3.org/Graphics/SVG/1.1/DTD/svg11.dtd" [
	<!ENTITY ns_flows "http://ns.adobe.com/Flows/1.0/">
]>
<svg version="1.1"
	 xmlns="http://www.w3.org/2000/svg" xmlns:xlink="http://www.w3.org/1999/xlink" xmlns:a="http://ns.adobe.com/AdobeSVGViewerExtensions/3.0/"
	 x="0px" y="0px" width="110px" height="131px" viewBox="0 0 110 131" overflow="visible" enable-background="new 0 0 110 131"
	 xml:space="preserve">
<defs>
</defs>
<polygon fill="#FFFFFF" points="40.182,83.104 33.261,83.104 20.523,99.971 7.842,83.104 0.924,83.104 17.123,104.23 0,126.414 
	6.863,126.414 20.523,108.423 34.24,126.414 41.099,126.414 23.979,104.17 "/>
<polygon fill="#FFFFFF" points="89.702,104.17 105.907,83.104 98.982,83.104 86.245,99.971 73.566,83.104 66.648,83.104 
	82.848,104.23 65.725,126.414 72.587,126.414 86.245,108.423 99.963,126.414 106.82,126.414 "/>
<polygon fill="#FFFFFF" points="74.346,43.309 56.893,21.064 73.411,0 66.389,0 53.384,16.886 40.441,0 33.421,0 49.934,21.125 
	32.478,43.309 39.444,43.309 53.383,25.3 67.383,43.309 "/>
</svg>
